<svg id="Layer_1" data-name="Layer 1" xmlns="http://www.w3.org/2000/svg" viewBox="0 0 72.5 69.32"><title>knomos-vector-logo</title><path d="M71.6,33.62l-7.7-4.4a25.5,25.5,0,0,0-4.7-10.3,1.45,1.45,0,0,0,.2-0.7l0.8-5.4a1.78,1.78,0,0,0-.7-1.8,2,2,0,0,0-1.4-.6,0.9,0.9,0,0,0-.5.1l-5.3,1.2a1.69,1.69,0,0,0-.6.3A27,27,0,0,0,41.4,8l-4.3-7.5a1.21,1.21,0,0,0-2,0L30.8,8a30.43,30.43,0,0,0-10.4,4l-0.6-.3-5.3-1.2c-0.2,0-.3-0.1-0.5-0.1a2,2,0,0,0-1.4.6,2.2,2.2,0,0,0-.7,1.8l0.8,5.4a0.76,0.76,0,0,0,.2.5,0.1,0.1,0,0,0,.1.1,25.5,25.5,0,0,0-4.7,10.3l-7.7,4.4a1.13,1.13,0,0,0,0,2l7.7,4.4A26.33,26.33,0,0,0,13,50.42a0.9,0.9,0,0,0-.1.5l-0.8,5.4a1.78,1.78,0,0,0,.7,1.8,2,2,0,0,0,1.4.6,0.9,0.9,0,0,0,.5-0.1l5.3-1.2c0.1,0,.3-0.1.4-0.1a0.1,0.1,0,0,0,.1-0.1,29,29,0,0,0,10.5,4l4.3,7.5a1.13,1.13,0,0,0,2,0l4.3-7.5a30.43,30.43,0,0,0,10.4-4l0.6,0.3,5.3,1.2c0.2,0,.3.1,0.5,0.1a2,2,0,0,0,1.4-.6,2.2,2.2,0,0,0,.7-1.8L59.7,51c0-.1-0.1-0.3-0.1-0.4s-0.1-.1-0.1-0.2A25.91,25.91,0,0,0,64.2,40l7.7-4.4a1.1,1.1,0,0,0,.6-1A2.93,2.93,0,0,0,71.6,33.62Zm-35.5,24c-13.5,0-24.1-10.1-24.1-22.9s10.8-23.1,24.1-23.1,24.2,10.3,24.2,23.1S49.7,57.62,36.1,57.62Z"/><path d="M45,40.72L39.3,32a3.39,3.39,0,0,0-.6-0.6L30,25.72a2,2,0,0,0-2.8,2.8l5.7,8.7a3.39,3.39,0,0,0,.6.6l8.7,5.7a2,2,0,0,0,1.1.3,2,2,0,0,0,1.4-.6A1.76,1.76,0,0,0,45,40.72Zm-10.4-4.6-5.7-8.7,8.7,5.7Z"/></svg>